<mxfile host="app.diagrams.net" agent="Mozilla/5.0 (Macintosh; Intel Mac OS X 10_15_7) AppleWebKit/537.36 (KHTML, like Gecko) Chrome/128.0.0.0 Safari/537.36" version="24.7.10">
  <diagram name="第 1 页" id="12fFhKDIcXKqbxUZoJ5w">
    <mxGraphModel dx="-407" dy="1145" grid="1" gridSize="10" guides="1" tooltips="1" connect="1" arrows="1" fold="1" page="1" pageScale="1" pageWidth="827" pageHeight="1169" math="0" shadow="0">
      <root>
        <mxCell id="0" />
        <mxCell id="1" parent="0" />
        <mxCell id="uvxz42krLSe2VagjVh1s-1" value="a" style="ellipse;whiteSpace=wrap;html=1;fontSize=16;" parent="1" vertex="1">
          <mxGeometry x="2660" y="824" width="50" height="35" as="geometry" />
        </mxCell>
        <mxCell id="uvxz42krLSe2VagjVh1s-2" value="b" style="ellipse;whiteSpace=wrap;html=1;fontSize=16;" parent="1" vertex="1">
          <mxGeometry x="2750" y="824" width="50" height="35" as="geometry" />
        </mxCell>
        <mxCell id="uvxz42krLSe2VagjVh1s-3" value="a" style="ellipse;whiteSpace=wrap;html=1;fontSize=16;" parent="1" vertex="1">
          <mxGeometry x="2630" y="730" width="50" height="35" as="geometry" />
        </mxCell>
        <mxCell id="uvxz42krLSe2VagjVh1s-4" value="b" style="ellipse;whiteSpace=wrap;html=1;fontSize=16;" parent="1" vertex="1">
          <mxGeometry x="2790" y="730" width="50" height="35" as="geometry" />
        </mxCell>
        <mxCell id="uvxz42krLSe2VagjVh1s-5" value="c" style="ellipse;whiteSpace=wrap;html=1;fontSize=16;" parent="1" vertex="1">
          <mxGeometry x="2705" y="730" width="50" height="35" as="geometry" />
        </mxCell>
        <mxCell id="uvxz42krLSe2VagjVh1s-6" value="" style="endArrow=classic;html=1;rounded=0;entryX=0.5;entryY=0;entryDx=0;entryDy=0;fontSize=16;" parent="1" edge="1">
          <mxGeometry width="50" height="50" relative="1" as="geometry">
            <mxPoint x="2734.5" y="660" as="sourcePoint" />
            <mxPoint x="2734.5" y="720" as="targetPoint" />
          </mxGeometry>
        </mxCell>
        <mxCell id="uvxz42krLSe2VagjVh1s-7" value="" style="endArrow=classic;html=1;rounded=0;entryX=0.5;entryY=0;entryDx=0;entryDy=0;fontSize=16;" parent="1" edge="1">
          <mxGeometry width="50" height="50" relative="1" as="geometry">
            <mxPoint x="2724.5" y="660" as="sourcePoint" />
            <mxPoint x="2724.5" y="720" as="targetPoint" />
          </mxGeometry>
        </mxCell>
        <mxCell id="uvxz42krLSe2VagjVh1s-8" value="" style="endArrow=classic;html=1;rounded=0;fontSize=16;" parent="1" edge="1">
          <mxGeometry width="50" height="50" relative="1" as="geometry">
            <mxPoint x="2684.5" y="934" as="sourcePoint" />
            <mxPoint x="2684.5" y="874" as="targetPoint" />
          </mxGeometry>
        </mxCell>
        <mxCell id="uvxz42krLSe2VagjVh1s-9" value="" style="endArrow=classic;html=1;rounded=0;fontSize=16;" parent="1" edge="1">
          <mxGeometry width="50" height="50" relative="1" as="geometry">
            <mxPoint x="2774.5" y="934" as="sourcePoint" />
            <mxPoint x="2774.5" y="874" as="targetPoint" />
          </mxGeometry>
        </mxCell>
        <mxCell id="uvxz42krLSe2VagjVh1s-10" value="oldArray：" style="text;html=1;align=center;verticalAlign=middle;resizable=0;points=[];autosize=1;strokeColor=none;fillColor=none;fontSize=16;" parent="1" vertex="1">
          <mxGeometry x="2550" y="732.5" width="100" height="30" as="geometry" />
        </mxCell>
        <mxCell id="uvxz42krLSe2VagjVh1s-11" value="[{op:delete, path: [&#39;oldArray&#39;, 1],oldVal: c}]" style="rounded=1;whiteSpace=wrap;html=1;fontSize=16;" parent="1" vertex="1">
          <mxGeometry x="2590" y="982" width="390" height="29" as="geometry" />
        </mxCell>
        <mxCell id="uvxz42krLSe2VagjVh1s-12" value="结果" style="text;html=1;align=center;verticalAlign=middle;resizable=0;points=[];autosize=1;strokeColor=none;fillColor=none;fontSize=16;" parent="1" vertex="1">
          <mxGeometry x="2585" y="982" width="60" height="30" as="geometry" />
        </mxCell>
        <mxCell id="uvxz42krLSe2VagjVh1s-13" value="newArray：" style="text;html=1;align=center;verticalAlign=middle;resizable=0;points=[];autosize=1;strokeColor=none;fillColor=none;fontSize=16;" parent="1" vertex="1">
          <mxGeometry x="2540" y="824" width="110" height="30" as="geometry" />
        </mxCell>
        <mxCell id="uvxz42krLSe2VagjVh1s-14" value="oldEnd" style="text;html=1;align=center;verticalAlign=middle;resizable=0;points=[];autosize=1;strokeColor=none;fillColor=none;fontSize=16;" parent="1" vertex="1">
          <mxGeometry x="2665" y="630" width="70" height="30" as="geometry" />
        </mxCell>
        <mxCell id="uvxz42krLSe2VagjVh1s-15" value="commonHead" style="text;html=1;align=center;verticalAlign=middle;resizable=0;points=[];autosize=1;strokeColor=none;fillColor=none;fontSize=16;" parent="1" vertex="1">
          <mxGeometry x="2720" y="630" width="120" height="30" as="geometry" />
        </mxCell>
        <mxCell id="uvxz42krLSe2VagjVh1s-16" value="commonHead" style="text;html=1;align=center;verticalAlign=middle;resizable=0;points=[];autosize=1;strokeColor=none;fillColor=none;fontSize=16;" parent="1" vertex="1">
          <mxGeometry x="2720" y="944" width="120" height="30" as="geometry" />
        </mxCell>
        <mxCell id="uvxz42krLSe2VagjVh1s-17" value="newEnd" style="text;html=1;align=center;verticalAlign=middle;resizable=0;points=[];autosize=1;strokeColor=none;fillColor=none;fontSize=16;" parent="1" vertex="1">
          <mxGeometry x="2645" y="944" width="80" height="30" as="geometry" />
        </mxCell>
        <mxCell id="uvxz42krLSe2VagjVh1s-18" value="" style="endArrow=classic;html=1;rounded=0;exitX=0.5;exitY=1;exitDx=0;exitDy=0;dashed=1;dashPattern=8 8;fontSize=16;" parent="1" source="uvxz42krLSe2VagjVh1s-5" edge="1">
          <mxGeometry width="50" height="50" relative="1" as="geometry">
            <mxPoint x="2323" y="825" as="sourcePoint" />
            <mxPoint x="2860" y="830" as="targetPoint" />
            <Array as="points">
              <mxPoint x="2750" y="790" />
              <mxPoint x="2780" y="800" />
              <mxPoint x="2820" y="820" />
            </Array>
          </mxGeometry>
        </mxCell>
        <mxCell id="uvxz42krLSe2VagjVh1s-19" value="删除" style="edgeLabel;html=1;align=center;verticalAlign=middle;resizable=0;points=[];fontSize=16;" parent="uvxz42krLSe2VagjVh1s-18" vertex="1" connectable="0">
          <mxGeometry x="-0.0878" relative="1" as="geometry">
            <mxPoint as="offset" />
          </mxGeometry>
        </mxCell>
      </root>
    </mxGraphModel>
  </diagram>
</mxfile>
